<?xml version="1.0" standalone="no"?>
<!DOCTYPE svg PUBLIC "-//W3C//DTD SVG 20010904//EN"
 "http://www.w3.org/TR/2001/REC-SVG-20010904/DTD/svg10.dtd">
<svg version="1.0" xmlns="http://www.w3.org/2000/svg"
 width="1559.000000pt" height="1559.000000pt" viewBox="0 0 1559.000000 1559.000000"
 preserveAspectRatio="xMidYMid meet">
<metadata>
Created by potrace 1.14, written by Peter Selinger 2001-2017
</metadata>
<g transform="translate(0.000000,1559.000000) scale(0.100000,-0.100000)"
fill="#000000" stroke="none">
<path d="M2350 15583 c-604 -63 -1133 -307 -1562 -721 -411 -398 -675 -908
-765 -1482 -17 -110 -18 -361 -18 -5595 l0 -5480 22 -125 c69 -392 201 -725
410 -1034 427 -631 1099 -1043 1848 -1132 180 -21 10840 -21 11020 0 905 107
1690 687 2065 1524 90 202 151 403 193 642 l22 125 0 5480 c0 5234 -1 5485
-18 5595 -91 577 -355 1088 -772 1488 -327 315 -728 538 -1163 647 -76 19
-184 42 -242 52 -100 17 -379 18 -5555 19 -2997 0 -5466 -1 -5485 -3z m775
-5349 c1738 -89 1813 -93 2075 -125 730 -87 1051 -263 1146 -629 23 -87 23
-280 0 -375 -9 -38 -39 -116 -67 -172 -124 -252 -400 -451 -840 -604 -66 -23
-118 -44 -115 -46 2 -2 51 -9 108 -14 246 -22 500 -78 680 -148 474 -186 705
-523 685 -1001 -21 -501 -258 -853 -732 -1085 -336 -164 -825 -289 -1430 -365
-174 -21 -3028 -320 -3032 -317 -1 1 295 141 658 311 411 193 659 314 659 323
0 29 -641 3899 -648 3911 -4 8 -194 99 -422 203 -228 105 -433 198 -455 208
l-40 19 60 -5 c33 -2 803 -42 1710 -89z m6984 -18 c-2 -2 -168 -103 -369 -226
-201 -123 -369 -226 -374 -231 -8 -7 -487 -2851 -481 -2857 1 -2 351 505 776
1127 426 621 777 1126 780 1123 3 -4 225 -502 494 -1107 268 -605 491 -1104
495 -1108 11 -12 13 25 85 1408 35 682 66 1263 69 1290 l4 51 -331 172 c-329
170 -331 172 -272 166 33 -2 740 -50 1570 -104 831 -55 1523 -101 1539 -102
21 -2 -49 -39 -283 -147 -171 -79 -317 -148 -325 -155 -16 -13 -1219 -3554
-1213 -3570 3 -6 198 -60 435 -121 301 -77 425 -112 409 -117 -42 -14 -2438
-459 -2445 -454 -4 2 -173 432 -377 955 -203 523 -372 951 -375 951 -3 0 -176
-385 -384 -855 -308 -695 -383 -855 -398 -855 -46 0 -1882 101 -1885 103 -1 2
139 62 312 133 264 108 315 132 315 149 0 20 -520 3819 -523 3821 -1 1 -132
61 -290 135 -159 73 -283 135 -277 137 16 6 3215 290 3274 291 27 1 47 -1 45
-3z"/>
<path d="M3800 9576 c0 -48 80 -900 85 -905 18 -18 345 54 464 103 166 67 291
165 331 259 45 103 6 244 -94 341 -64 63 -200 133 -326 170 -96 27 -299 56
-396 56 -61 0 -64 -1 -64 -24z"/>
<path d="M4090 7700 c-88 -17 -230 -55 -290 -78 l-26 -10 -63 -566 c-35 -312
-62 -569 -59 -571 2 -2 60 31 128 73 413 257 666 470 780 659 104 171 93 335
-30 432 -101 80 -241 99 -440 61z"/>
</g>
</svg>
