<svg id="SvgjsSvg1242" width="1530.21875" height="685.4296875" xmlns="http://www.w3.org/2000/svg" version="1.1" xmlns:xlink="http://www.w3.org/1999/xlink" xmlns:svgjs="http://svgjs.com/svgjs"><defs id="SvgjsDefs1243"><marker id="SvgjsMarker1246" markerWidth="14" markerHeight="12" refX="16" refY="6" viewBox="0 0 14 12" orient="auto" markerUnits="userSpaceOnUse" stroke-dasharray="0,0"><path id="SvgjsPath1247" d="M1,1 L14,6 L1,11L1,1" fill="#ffffff" stroke="#f57f17" stroke-width="2"></path></marker><marker id="SvgjsMarker1250" markerWidth="14" markerHeight="12" refX="16" refY="6" viewBox="0 0 14 12" orient="auto" markerUnits="userSpaceOnUse" stroke-dasharray="0,0"><path id="SvgjsPath1251" d="M1,1 L14,6 L1,11L1,1" fill="#ffffff" stroke="#f57f17" stroke-width="2"></path></marker><marker id="SvgjsMarker1266" markerWidth="14" markerHeight="12" refX="16" refY="6" viewBox="0 0 14 12" orient="auto" markerUnits="userSpaceOnUse" stroke-dasharray="0,0"><path id="SvgjsPath1267" d="M1,1 L14,6 L1,11L1,1" fill="#ffffff" stroke="#f57f17" stroke-width="2"></path></marker><marker id="SvgjsMarker1276" markerWidth="14" markerHeight="12" refX="16" refY="6" viewBox="0 0 14 12" orient="auto" markerUnits="userSpaceOnUse" stroke-dasharray="0,0"><path id="SvgjsPath1277" d="M1,1 L14,6 L1,11L1,1" fill="#ffffff" stroke="#f57f17" stroke-width="2"></path></marker><marker id="SvgjsMarker1286" markerWidth="14" markerHeight="12" refX="16" refY="6" viewBox="0 0 14 12" orient="auto" markerUnits="userSpaceOnUse" stroke-dasharray="0,0"><path id="SvgjsPath1287" d="M1,1 L14,6 L1,11L1,1" fill="#ffffff" stroke="#f57f17" stroke-width="2"></path></marker><marker id="SvgjsMarker1290" markerWidth="14" markerHeight="12" refX="16" refY="6" viewBox="0 0 14 12" orient="auto" markerUnits="userSpaceOnUse" stroke-dasharray="0,0"><path id="SvgjsPath1291" d="M1,1 L14,6 L1,11L1,1" fill="#ffffff" stroke="#f57f17" stroke-width="2"></path></marker><marker id="SvgjsMarker1300" markerWidth="14" markerHeight="12" refX="16" refY="6" viewBox="0 0 14 12" orient="auto" markerUnits="userSpaceOnUse" stroke-dasharray="0,0"><path id="SvgjsPath1301" d="M1,1 L14,6 L1,11L1,1" fill="#ffffff" stroke="#f57f17" stroke-width="2"></path></marker><marker id="SvgjsMarker1316" markerWidth="14" markerHeight="12" refX="16" refY="6" viewBox="0 0 14 12" orient="auto" markerUnits="userSpaceOnUse" stroke-dasharray="0,0"><path id="SvgjsPath1317" d="M1,1 L14,6 L1,11L1,1" fill="#ffffff" stroke="#f57f17" stroke-width="2"></path></marker><marker id="SvgjsMarker1320" markerWidth="14" markerHeight="12" refX="16" refY="6" viewBox="0 0 14 12" orient="auto" markerUnits="userSpaceOnUse" stroke-dasharray="0,0"><path id="SvgjsPath1321" d="M1,1 L14,6 L1,11L1,1" fill="#ffffff" stroke="#f57f17" stroke-width="2"></path></marker><marker id="SvgjsMarker1336" markerWidth="14" markerHeight="12" refX="16" refY="6" viewBox="0 0 14 12" orient="auto" markerUnits="userSpaceOnUse" stroke-dasharray="0,0"><path id="SvgjsPath1337" d="M1,1 L14,6 L1,11L1,1" fill="#ffffff" stroke="#f57f17" stroke-width="2"></path></marker><marker id="SvgjsMarker1340" markerWidth="14" markerHeight="12" refX="16" refY="6" viewBox="0 0 14 12" orient="auto" markerUnits="userSpaceOnUse" stroke-dasharray="0,0"><path id="SvgjsPath1341" d="M1,1 L14,6 L1,11L1,1" fill="#ffffff" stroke="#f57f17" stroke-width="2"></path></marker><marker id="SvgjsMarker1344" markerWidth="14" markerHeight="12" refX="16" refY="6" viewBox="0 0 14 12" orient="auto" markerUnits="userSpaceOnUse" stroke-dasharray="0,0"><path id="SvgjsPath1345" d="M1,1 L14,6 L1,11L1,1" fill="#ffffff" stroke="#f57f17" stroke-width="2"></path></marker><marker id="SvgjsMarker1354" markerWidth="14" markerHeight="12" refX="16" refY="6" viewBox="0 0 14 12" orient="auto" markerUnits="userSpaceOnUse" stroke-dasharray="0,0"><path id="SvgjsPath1355" d="M1,1 L14,6 L1,11L1,1" fill="#ffffff" stroke="#f57f17" stroke-width="2"></path></marker><marker id="SvgjsMarker1358" markerWidth="14" markerHeight="12" refX="16" refY="6" viewBox="0 0 14 12" orient="auto" markerUnits="userSpaceOnUse" stroke-dasharray="0,0"><path id="SvgjsPath1359" d="M1,1 L14,6 L1,11L1,1" fill="#ffffff" stroke="#f57f17" stroke-width="2"></path></marker></defs><g id="SvgjsG1244"><path id="SvgjsPath1245" d="M405.7328666211667 619.6810732336158L640.2719480209441 352.14010064469244" stroke-dasharray="8,5" stroke="#f57f17" stroke-width="2" fill="none" marker-end="url(#SvgjsMarker1246)"></path></g><g id="SvgjsG1248"><path id="SvgjsPath1249" d="M145.66953359971976 619.6882479823282L640.2428040410172 67.68570012075858" stroke-dasharray="8,5" stroke="#f57f17" stroke-width="2" fill="none" marker-end="url(#SvgjsMarker1250)"></path></g><g id="SvgjsG1252" transform="translate(69.50223214285666,309.4330357142841)"><path id="SvgjsPath1253" d="M 0 4Q 0 0 4 0L 271 0Q 275 0 275 4L 275 36Q 275 40 271 40L 4 40Q 0 40 0 36Z" stroke="rgba(50,50,50,1)" stroke-width="2" fill-opacity="1" fill="#ffffff"></path><g id="SvgjsG1254"><text id="SvgjsText1255" font-family="&quot;Lucida Console&quot;" text-anchor="middle" font-size="20px" width="255px" fill="#323232" font-weight="400" align="middle" lineHeight="125%" anchor="middle" family="&quot;Lucida Console&quot;" size="20px" weight="400" font-style="" opacity="1" y="2" transform="rotate(0)"><tspan id="SvgjsTspan1256" dy="25" x="137.5"><tspan id="SvgjsTspan1257" style="text-decoration:;">java.util.AbstractMap&lt;K,V&gt;</tspan></tspan></text></g></g><g id="SvgjsG1258" transform="translate(545.145089285713,25.004464285715244)"><path id="SvgjsPath1259" d="M 0 4Q 0 0 4 0L 191 0Q 195 0 195 4L 195 36Q 195 40 191 40L 4 40Q 0 40 0 36Z" stroke-dasharray="10,6" stroke="rgba(50,50,50,1)" stroke-width="2" fill-opacity="1" fill="#ffffff"></path><g id="SvgjsG1260"><text id="SvgjsText1261" font-family="&quot;Lucida Console&quot;" text-anchor="middle" font-size="20px" width="175px" fill="#323232" font-weight="400" align="middle" lineHeight="125%" anchor="middle" family="&quot;Lucida Console&quot;" size="20px" weight="400" font-style="italic" opacity="1" y="2" transform="rotate(0)"><tspan id="SvgjsTspan1262" dy="25" x="97.5"><tspan id="SvgjsTspan1263" style="text-decoration:;">java.util.Map&lt;K,V&gt;</tspan></tspan></text></g></g><g id="SvgjsG1264"><path id="SvgjsPath1265" d="M207.8743379777511 308.9437184217768L639.5055082800994 66.76600653874138" stroke-dasharray="8,5" stroke="#f57f17" stroke-width="2" fill="none" marker-end="url(#SvgjsMarker1266)"></path></g><g id="SvgjsG1268" transform="translate(545.1450892857125,620.4330357142848)"><path id="SvgjsPath1269" d="M 0 4Q 0 0 4 0L 446 0Q 450 0 450 4L 450 36Q 450 40 446 40L 4 40Q 0 40 0 36Z" stroke="rgba(50,50,50,1)" stroke-width="2" fill-opacity="1" fill="#ffffff"></path><g id="SvgjsG1270"><text id="SvgjsText1271" font-family="&quot;Lucida Console&quot;" text-anchor="middle" font-size="20px" width="430px" fill="#323232" font-weight="400" align="middle" lineHeight="125%" anchor="middle" family="&quot;Lucida Console&quot;" size="20px" weight="400" font-style="" opacity="1" y="2" transform="rotate(0)"><tspan id="SvgjsTspan1272" dy="25" x="225"><tspan id="SvgjsTspan1273" style="text-decoration:;">java.util.concurrent.ConcurrentHashMap&lt;K,V&gt;</tspan></tspan></text></g></g><g id="SvgjsG1274"><path id="SvgjsPath1275" d="M769.2439982874763 619.9994056727708L210.2461597364976 350.9941038637346" stroke="#f57f17" stroke-width="2" fill="none" marker-end="url(#SvgjsMarker1276)"></path></g><g id="SvgjsG1278" transform="translate(940.7879464285711,309.4330357142841)"><path id="SvgjsPath1279" d="M 0 4Q 0 0 4 0L 401 0Q 405 0 405 4L 405 36Q 405 40 401 40L 4 40Q 0 40 0 36Z" stroke-dasharray="10,6" stroke="rgba(50,50,50,1)" stroke-width="2" fill-opacity="1" fill="#ffffff"></path><g id="SvgjsG1280"><text id="SvgjsText1281" font-family="&quot;Lucida Console&quot;" text-anchor="middle" font-size="20px" width="385px" fill="#323232" font-weight="400" align="middle" lineHeight="125%" anchor="middle" family="&quot;Lucida Console&quot;" size="20px" weight="400" font-style="italic" opacity="1" y="2" transform="rotate(0)"><tspan id="SvgjsTspan1282" dy="25" x="202.5"><tspan id="SvgjsTspan1283" style="text-decoration:;">java.util.concurrent.ConcurrentMap&lt;K,V&gt;</tspan></tspan></text></g></g><g id="SvgjsG1284"><path id="SvgjsPath1285" d="M1142.389328362703 308.99430393779755L645.8801143228302 66.58389868106664" stroke="#f57f17" stroke-width="2" fill="none" marker-end="url(#SvgjsMarker1286)"></path></g><g id="SvgjsG1288"><path id="SvgjsPath1289" d="M770.9542136644094 619.845398292235L1140.3750986652492 351.5485304336634" stroke-dasharray="8,5" stroke="#f57f17" stroke-width="2" fill="none" marker-end="url(#SvgjsMarker1290)"></path></g><g id="SvgjsG1292" transform="translate(1010.2165178571399,464.93303571428453)"><path id="SvgjsPath1293" d="M 0 4Q 0 0 4 0L 491 0Q 495 0 495 4L 495 36Q 495 40 491 40L 4 40Q 0 40 0 36Z" stroke-dasharray="10,6" stroke="rgba(50,50,50,1)" stroke-width="2" fill-opacity="1" fill="#ffffff"></path><g id="SvgjsG1294"><text id="SvgjsText1295" font-family="&quot;Lucida Console&quot;" text-anchor="middle" font-size="20px" width="475px" fill="#323232" font-weight="400" align="middle" lineHeight="125%" anchor="middle" family="&quot;Lucida Console&quot;" size="20px" weight="400" font-style="italic" opacity="1" y="2" transform="rotate(0)"><tspan id="SvgjsTspan1296" dy="25" x="247.5"><tspan id="SvgjsTspan1297" style="text-decoration:;">java.util.concurrent.ConcurrentNavigableMap&lt;K,V&gt;</tspan></tspan></text></g></g><g id="SvgjsG1298"><path id="SvgjsPath1299" d="M1257.0127137161048 464.22264164683713L1145.8216413362888 351.990454357095" stroke="#f57f17" stroke-width="2" fill="none" marker-end="url(#SvgjsMarker1300)"></path></g><g id="SvgjsG1302" transform="translate(500.1450892857134,309.4330357142841)"><path id="SvgjsPath1303" d="M 0 4Q 0 0 4 0L 281 0Q 285 0 285 4L 285 36Q 285 40 281 40L 4 40Q 0 40 0 36Z" stroke-dasharray="10,6" stroke="rgba(50,50,50,1)" stroke-width="2" fill-opacity="1" fill="#ffffff"></path><g id="SvgjsG1304"><text id="SvgjsText1305" font-family="&quot;Lucida Console&quot;" text-anchor="middle" font-size="20px" width="265px" fill="#323232" font-weight="400" align="middle" lineHeight="125%" anchor="middle" family="&quot;Lucida Console&quot;" size="20px" weight="400" font-style="italic" opacity="1" y="2" transform="rotate(0)"><tspan id="SvgjsTspan1306" dy="25" x="142.5"><tspan id="SvgjsTspan1307" style="text-decoration:;">java.util.NavigableMap&lt;K,V&gt;</tspan></tspan></text></g></g><g id="SvgjsG1308" transform="translate(572.2879464285717,167.21874999999955)"><path id="SvgjsPath1309" d="M 0 4Q 0 0 4 0L 251 0Q 255 0 255 4L 255 36Q 255 40 251 40L 4 40Q 0 40 0 36Z" stroke-dasharray="10,6" stroke="rgba(50,50,50,1)" stroke-width="2" fill-opacity="1" fill="#ffffff"></path><g id="SvgjsG1310"><text id="SvgjsText1311" font-family="&quot;Lucida Console&quot;" text-anchor="middle" font-size="20px" width="235px" fill="#323232" font-weight="400" align="middle" lineHeight="125%" anchor="middle" family="&quot;Lucida Console&quot;" size="20px" weight="400" font-style="italic" opacity="1" y="2" transform="rotate(0)"><tspan id="SvgjsTspan1312" dy="25" x="127.5"><tspan id="SvgjsTspan1313" style="text-decoration:;">java.util.SortedMap&lt;K,V&gt;</tspan></tspan></text></g></g><g id="SvgjsG1314"><path id="SvgjsPath1315" d="M643.1330610163543 308.5601762811014L698.0312481982678 210.3610439594564" stroke="#f57f17" stroke-width="2" fill="none" marker-end="url(#SvgjsMarker1316)"></path></g><g id="SvgjsG1318"><path id="SvgjsPath1319" d="M1256.733696098898 464.74847842905933L646.1832476153787 350.0974419410958" stroke="#f57f17" stroke-width="2" fill="none" marker-end="url(#SvgjsMarker1320)"></path></g><g id="SvgjsG1322" transform="translate(25.002232142859953,620.4330357142848)"><path id="SvgjsPath1323" d="M 0 4Q 0 0 4 0L 236 0Q 240 0 240 4L 240 36Q 240 40 236 40L 4 40Q 0 40 0 36Z" stroke="rgba(50,50,50,1)" stroke-width="2" fill-opacity="1" fill="#ffffff"></path><g id="SvgjsG1324"><text id="SvgjsText1325" font-family="&quot;Lucida Console&quot;" text-anchor="middle" font-size="20px" width="220px" fill="#323232" font-weight="400" align="middle" lineHeight="125%" anchor="middle" family="&quot;Lucida Console&quot;" size="20px" weight="400" font-style="" opacity="1" y="2" transform="rotate(0)"><tspan id="SvgjsTspan1326" dy="25" x="120"><tspan id="SvgjsTspan1327" style="text-decoration:;">java.util.HashMap&lt;K,V&gt;</tspan></tspan></text></g></g><g id="SvgjsG1328" transform="translate(1017.7165178571399,620.4330357142848)"><path id="SvgjsPath1329" d="M 0 4Q 0 0 4 0L 476 0Q 480 0 480 4L 480 36Q 480 40 476 40L 4 40Q 0 40 0 36Z" stroke="rgba(50,50,50,1)" stroke-width="2" fill-opacity="1" fill="#ffffff"></path><g id="SvgjsG1330"><text id="SvgjsText1331" font-family="&quot;Lucida Console&quot;" text-anchor="middle" font-size="20px" width="460px" fill="#323232" font-weight="400" align="middle" lineHeight="125%" anchor="middle" family="&quot;Lucida Console&quot;" size="20px" weight="400" font-style="" opacity="1" y="2" transform="rotate(0)"><tspan id="SvgjsTspan1332" dy="25" x="240"><tspan id="SvgjsTspan1333" style="text-decoration:;">java.util.concurrent.ConcurrentSkipListMap&lt;K,V&gt;</tspan></tspan></text></g></g><g id="SvgjsG1334"><path id="SvgjsPath1335" d="M699.2999746979324 166.34589056681688L644.401787516017 68.14675824517285" stroke="#f57f17" stroke-width="2" fill="none" marker-end="url(#SvgjsMarker1336)"></path></g><g id="SvgjsG1338"><path id="SvgjsPath1339" d="M1256.748206633552 620.1832890941423L210.48815254777728 350.33212354679694" stroke="#f57f17" stroke-width="2" fill="none" marker-end="url(#SvgjsMarker1340)"></path></g><g id="SvgjsG1342"><path id="SvgjsPath1343" d="M1257.7165178571404 619.4330357142848L1257.7165178571381 508.53303571428455" stroke-dasharray="8,5" stroke="#f57f17" stroke-width="2" fill="none" marker-end="url(#SvgjsMarker1344)"></path></g><g id="SvgjsG1346" transform="translate(287.5736607142861,620.4330357142848)"><path id="SvgjsPath1347" d="M 0 4Q 0 0 4 0L 231 0Q 235 0 235 4L 235 36Q 235 40 231 40L 4 40Q 0 40 0 36Z" stroke="rgba(50,50,50,1)" stroke-width="2" fill-opacity="1" fill="#ffffff"></path><g id="SvgjsG1348"><text id="SvgjsText1349" font-family="&quot;Lucida Console&quot;" text-anchor="middle" font-size="20px" width="215px" fill="#323232" font-weight="400" align="middle" lineHeight="125%" anchor="middle" family="&quot;Lucida Console&quot;" size="20px" weight="400" font-style="" opacity="1" y="2" transform="rotate(0)"><tspan id="SvgjsTspan1350" dy="25" x="117.5"><tspan id="SvgjsTspan1351" style="text-decoration:;">java.util.TreeMap&lt;K,V&gt;</tspan></tspan></text></g></g><g id="SvgjsG1352"><path id="SvgjsPath1353" d="M145.22525228273753 619.4582218770784L206.1993596392996 352.9423655282273" stroke="#f57f17" stroke-width="2" fill="none" marker-end="url(#SvgjsMarker1354)"></path></g><g id="SvgjsG1356"><path id="SvgjsPath1357" d="M404.48358010360835 619.6256913807429L209.1265223412985 352.339475315035" stroke="#f57f17" stroke-width="2" fill="none" marker-end="url(#SvgjsMarker1358)"></path></g></svg>